# xmcd
#
# Track frame offsets:
# 150
# 27097
# 46282
# 62707
# 84867
# 105627
# 130577
# 162897
# 183290
# 200785
# 222550
# 242592
# 259917
# 277802
#
# Disc length: 4004 seconds
#
#
# Revision: 5
# Processed by: cddbd v1.5.1PL0 Copyright (c) Steve Scherf et al.
# Submitted via: FreeRIP 2.70 
#
DISCID=bd0fa20e
DTITLE=Sting - The Best Of Sting (1984 - 1994)
DYEAR=1994
DGENRE=Pop
TTITLE0=STING - When We Dance
TTITLE1=STING - If You Love Somebody Set Them Free
TTITLE2=STING - Fields Of Gold
TTITLE3=STING - All This Time
TTITLE4=STING - Fortress Around Your Heart
TTITLE5=STING - Be Still My Beating Heart
TTITLE6=STING - They Dance Alone (Cueca Solo)
TTITLE7=STING - If I Ever Lose My Faith In You
TTITLE8=STING - Fragile
TTITLE9=STING - Why Should I Cry For You?
TTITLE10=STING - Englishman In New York
TTITLE11=STING - We'll Be Together
TTITLE12=STING - Russians
TTITLE13=STING - This Cowboy Song
EXTD=YEAR: 1994
EXTT0=
EXTT1=
EXTT2=
EXTT3=
EXTT4=
EXTT5=
EXTT6=
EXTT7=
EXTT8=
EXTT9=
EXTT10=
EXTT11=
EXTT12=
EXTT13=
PLAYORDER=
